<?xml version="1.0" standalone="no"?>
<!DOCTYPE svg PUBLIC "-//W3C//DTD SVG 20010904//EN"
 "http://www.w3.org/TR/2001/REC-SVG-20010904/DTD/svg10.dtd">
<svg version="1.0" xmlns="http://www.w3.org/2000/svg"
 width="340.000000pt" height="420.000000pt" viewBox="0 0 340.000000 420.000000"
 preserveAspectRatio="xMidYMid meet">
<metadata>
Created by potrace 1.16, written by Peter Selinger 2001-2019
</metadata>
<g transform="translate(0.000000,420.000000) scale(0.100000,-0.100000)"
fill="#000000" stroke="none">
<path d="M3380 2485 c0 -1885 5 -1748 -59 -1775 -15 -6 -35 -27 -44 -46 -11
-22 -24 -34 -37 -34 -24 0 -40 -35 -40 -85 0 -19 -4 -37 -10 -40 -5 -3 -10
-24 -10 -46 0 -65 -19 -75 -135 -72 -137 3 -239 15 -258 31 -9 7 -19 28 -23
45 -4 19 -24 49 -52 75 l-45 42 5 139 c3 77 2 143 -2 148 -5 4 -4 67 1 138 16
238 27 480 22 513 -5 28 -2 34 16 39 14 3 21 13 21 29 0 16 10 30 28 42 43 25
137 132 118 132 -19 0 -21 14 -3 29 9 7 17 7 24 0 15 -15 71 77 94 154 10 34
23 69 28 78 20 34 34 106 32 165 -1 66 15 88 47 62 13 -11 14 -8 7 22 -11 53
-35 102 -68 136 -28 31 -29 33 -18 85 17 84 -23 541 -60 684 -53 207 -163 420
-273 528 -41 40 -256 187 -331 226 -50 26 -258 81 -306 81 -20 0 -56 9 -80 19
-24 11 -80 25 -124 31 -227 32 -245 32 -332 -12 -48 -23 -73 -31 -73 -23 0 7
6 16 13 18 6 3 2 6 -9 6 -12 1 -33 10 -47 21 -27 22 -76 27 -94 9 -6 -6 -86
-11 -209 -13 -176 -3 -205 -5 -246 -24 -109 -48 -191 -165 -204 -288 -8 -76
18 -210 56 -287 l29 -58 -25 -52 c-13 -29 -24 -59 -24 -67 0 -9 -6 -24 -14
-35 -28 -42 -70 -163 -80 -237 -8 -49 -9 -108 -4 -160 5 -46 8 -113 8 -150 0
-38 3 -68 5 -68 3 0 12 16 20 36 15 35 16 36 58 32 56 -7 108 -32 187 -91 56
-43 123 -77 151 -77 5 0 16 11 25 25 15 23 15 31 4 68 -17 53 -37 77 -65 77
-12 0 -56 10 -96 23 -155 49 -224 58 -247 35 -6 -6 -14 -9 -18 -6 -3 4 -5 64
-5 134 1 109 5 138 27 203 33 96 82 201 95 201 5 0 9 7 9 15 0 21 14 19 55 -9
37 -26 140 -67 262 -107 70 -22 76 -22 195 -10 120 12 351 56 454 86 74 22
257 27 299 9 19 -7 36 -18 40 -24 3 -5 14 -10 24 -10 10 0 23 -11 29 -25 10
-21 9 -31 -4 -51 -16 -23 -16 -26 6 -49 12 -13 19 -28 15 -34 -3 -7 3 -11 15
-11 20 0 22 -4 18 -45 -2 -25 1 -45 5 -45 5 0 7 -18 6 -40 -2 -21 0 -42 4 -46
10 -11 9 -64 -2 -64 -21 0 -23 -42 -3 -60 20 -19 20 -18 27 61 4 43 12 79 17
79 6 0 8 -17 4 -45 -7 -43 6 -103 27 -133 7 -8 4 -19 -7 -31 -9 -10 -14 -25
-10 -35 3 -9 0 -24 -7 -33 -11 -13 -11 -17 -1 -20 18 -7 15 -33 -4 -33 -9 0
-18 -9 -21 -20 -3 -11 -11 -20 -18 -20 -13 0 -35 41 -35 65 0 8 -7 15 -15 15
-9 0 -15 9 -15 21 0 11 -7 27 -15 35 -13 14 -15 13 -15 -6 0 -12 -3 -20 -7
-18 -5 2 -35 17 -68 33 -57 29 -66 30 -180 29 -66 0 -158 -6 -205 -12 -47 -6
-121 -14 -164 -18 -64 -5 -83 -10 -102 -30 -49 -48 -13 -134 56 -134 27 0 127
35 172 60 10 6 23 10 31 10 7 0 28 9 48 19 44 23 83 30 185 32 91 1 129 -9
177 -45 42 -32 91 -119 82 -146 -3 -10 1 -33 9 -49 22 -41 20 -60 -6 -71 -18
-7 -19 -9 -5 -9 20 -1 22 -12 5 -29 -9 -9 -5 -12 21 -12 19 0 30 4 26 10 -3 6
-1 10 4 10 22 0 10 -26 -20 -44 -29 -17 -30 -20 -13 -29 11 -5 29 -19 41 -29
30 -28 43 -15 43 43 0 46 1 49 16 35 20 -21 25 -20 19 2 -3 9 2 2 11 -17 10
-24 13 -41 7 -55 -5 -12 -6 -40 -3 -63 4 -27 2 -44 -4 -46 -7 -3 -7 -9 1 -19
16 -19 7 -28 -28 -28 -20 0 -30 7 -40 28 -12 27 -14 28 -31 13 -22 -19 -23
-37 -2 -45 8 -3 13 -10 10 -15 -3 -5 -1 -23 5 -40 11 -32 4 -121 -9 -121 -13
1 -52 72 -52 95 0 25 -16 43 -22 24 -5 -15 -58 10 -58 28 0 23 -18 14 -24 -12
-4 -14 -17 -32 -31 -41 -30 -19 -32 -48 -6 -66 11 -8 22 -30 26 -51 4 -20 11
-34 16 -31 5 3 9 -7 9 -23 0 -22 -2 -25 -10 -13 -8 12 -10 9 -10 -12 0 -14 -3
-33 -6 -42 -4 -11 -1 -16 10 -16 23 0 20 -13 -9 -40 -14 -13 -24 -31 -23 -39
2 -10 -6 -17 -19 -19 -13 -2 -23 -7 -23 -11 0 -4 -27 6 -60 22 -33 17 -60 35
-60 42 0 7 -17 24 -38 39 -22 15 -48 37 -60 49 -12 12 -26 27 -31 32 -6 6 -22
22 -36 38 -14 15 -32 27 -40 27 -8 0 -19 10 -26 23 -16 30 -50 57 -74 56 -38
0 -52 -21 -53 -78 -3 -92 -1 -91 -100 -93 -84 -1 -118 -3 -154 -6 -9 -1 -20
-11 -23 -22 -3 -11 -15 -20 -26 -20 -10 0 -19 -4 -19 -9 0 -20 -78 -3 -114 24
-24 18 -44 26 -61 23 -26 -5 -45 10 -60 47 -7 18 -10 16 -24 -18 -10 -22 -21
-35 -29 -32 -7 3 -18 -7 -25 -23 -7 -15 -19 -28 -27 -30 -8 -2 -18 -9 -22 -15
-22 -36 -29 -42 -35 -29 -3 9 -10 4 -19 -13 -17 -32 -18 -61 -3 -70 6 -4 7
-19 4 -35 -3 -16 -2 -31 4 -35 7 -4 11 5 12 22 0 27 1 27 10 5 5 -13 16 -23
26 -21 32 3 43 -1 43 -15 0 -25 32 -28 53 -5 16 17 22 19 25 9 3 -8 9 -19 14
-25 4 -5 18 -23 30 -38 17 -23 26 -28 49 -23 26 5 29 2 39 -32 5 -20 10 -47
10 -60 0 -12 4 -30 9 -40 6 -9 17 -41 26 -69 9 -29 20 -53 24 -53 4 0 13 -11
19 -25 10 -22 15 -24 38 -15 15 6 42 8 60 4 28 -5 32 -9 23 -20 -6 -8 -10 -14
-8 -15 31 -6 69 -2 69 9 0 6 -4 12 -10 12 -5 0 -7 7 -4 15 4 8 1 21 -5 29 -20
23 11 36 95 39 78 2 79 2 79 -23 0 -16 5 -24 15 -23 60 6 91 17 114 38 15 14
36 29 47 35 11 6 17 15 14 20 -3 5 3 15 13 22 11 7 27 28 36 46 9 18 24 36 32
39 7 3 14 9 14 14 0 5 12 23 27 40 19 21 35 29 53 27 19 -2 34 7 62 40 21 24
41 55 44 70 9 43 12 49 13 24 1 -17 9 -24 32 -29 l32 -6 -8 -66 c-4 -36 -9
-79 -10 -96 -5 -46 -35 -166 -51 -203 -8 -18 -14 -40 -14 -50 0 -9 -9 -31 -19
-48 -11 -18 -21 -44 -23 -59 -4 -39 -30 -53 -62 -35 -36 19 -40 9 -10 -23 14
-15 20 -27 15 -27 -5 0 -13 -20 -17 -45 -5 -39 -9 -45 -25 -40 -16 5 -19 1
-19 -24 0 -39 -16 -48 -25 -13 l-7 27 -14 -27 c-8 -16 -20 -28 -26 -28 -10 0
-7 -35 7 -71 4 -10 -4 -20 -27 -30 -18 -8 -32 -20 -30 -27 1 -7 -6 -16 -15
-19 -25 -10 -40 -26 -36 -40 2 -6 -5 -14 -16 -18 -11 -3 -22 -14 -25 -23 -10
-30 -98 -56 -119 -36 -9 9 -228 10 -234 2 -6 -12 -53 -10 -53 2 0 5 -12 7 -27
4 -23 -4 -30 0 -40 22 -7 16 -13 33 -13 39 0 7 -7 12 -15 12 -19 0 -19 -16 0
-41 9 -11 11 -24 5 -35 -26 -49 -49 -171 -47 -244 2 -72 0 -80 -21 -98 -13
-10 -43 -24 -65 -31 -50 -14 -244 -17 -272 -4 -11 5 -37 10 -57 11 -32 1 -38
-2 -39 -19 0 -12 -3 -15 -6 -8 -14 34 -75 4 -142 -70 l-44 -48 1111 0 1111 0
21 47 c11 25 23 43 27 40 3 -4 1 -12 -4 -19 -6 -7 -13 -25 -17 -40 l-6 -28
271 0 271 0 -24 33 c-57 76 -159 227 -153 227 22 0 87 -70 146 -157 l69 -103
120 0 120 0 0 2100 c0 1393 -3 2100 -10 2100 -7 0 -10 -578 -10 -1715z m-455
-223 c12 -8 35 -133 35 -186 0 -55 -39 -164 -71 -201 -37 -42 -46 -43 -61 -10
-15 33 -23 32 -58 -7 -20 -21 -33 -29 -40 -22 -6 6 2 23 25 48 27 31 33 44 28
67 -4 21 -1 30 11 35 14 6 16 15 11 59 -7 51 -6 54 16 57 30 4 35 28 14 72
-17 36 -14 56 9 56 7 0 23 9 36 20 25 22 30 23 45 12z m-1299 -464 c38 -32 56
-56 80 -105 13 -29 31 -53 39 -53 8 0 24 -18 35 -40 11 -22 25 -40 30 -40 14
0 12 -27 -2 -36 -6 -4 -14 -2 -16 4 -2 7 -10 12 -17 12 -7 0 -15 5 -17 10 -4
14 -103 40 -149 40 -36 0 -60 -17 -72 -52 -3 -9 -21 -18 -44 -22 -86 -13 -273
-26 -304 -21 -99 16 -149 29 -149 37 0 5 -9 6 -21 3 -14 -5 -27 0 -40 14 -11
11 -26 18 -33 15 -23 -9 -48 11 -60 47 -9 28 -8 43 5 79 18 48 42 59 47 22 2
-12 12 -27 23 -32 10 -6 19 -19 19 -30 0 -16 5 -19 30 -13 22 4 30 2 30 -9 0
-17 23 -29 94 -52 68 -22 74 -21 157 22 63 33 87 40 161 45 77 6 90 10 114 34
22 22 27 36 26 72 -1 62 6 72 34 49z m-122 -344 c10 -4 16 -18 16 -40 0 -40
12 -43 34 -9 21 32 44 32 52 0 11 -44 -41 -98 -61 -64 -5 7 -16 2 -31 -12 -24
-22 -26 -22 -53 -6 -25 15 -30 15 -41 2 -7 -8 -27 -15 -45 -15 -18 0 -45 -7
-61 -15 -18 -9 -42 -12 -71 -8 -42 6 -43 5 -43 -23 0 -21 -3 -25 -9 -15 -5 8
-7 20 -4 28 3 9 -3 13 -20 13 -14 0 -29 5 -32 10 -4 6 -22 17 -40 24 -27 12
-35 22 -41 50 -3 20 -4 43 0 51 6 18 47 20 64 3 8 -8 15 -8 26 2 23 19 63 4
74 -27 6 -16 11 -22 11 -14 2 37 32 51 108 51 71 0 74 -1 84 -27 10 -27 11
-27 21 -8 11 20 39 55 44 55 1 0 9 -3 18 -6z m547 -324 c23 -13 25 -30 3 -30
-12 0 -14 -7 -9 -28 3 -16 -1 -43 -9 -63 -8 -20 -17 -53 -20 -75 -6 -52 -15
-74 -32 -74 -7 0 -19 -8 -26 -18 -19 -26 -48 -35 -54 -17 -4 8 -12 15 -20 15
-8 0 -14 2 -14 4 0 2 21 44 47 92 26 49 59 115 75 147 31 62 30 62 59 47z
m429 -263 c-9 -40 -2 -51 26 -40 12 4 15 3 10 -5 -4 -7 -14 -12 -22 -12 -8 0
-14 -9 -14 -20 0 -11 -3 -19 -7 -19 -26 4 -34 -2 -28 -22 5 -15 3 -20 -6 -17
-7 2 -29 -11 -48 -29 -35 -33 -64 -42 -76 -23 -3 6 -2 10 4 10 5 0 13 15 16
33 10 43 54 130 73 142 33 21 76 44 78 42 2 -1 -1 -19 -6 -40z"/>
<path d="M654 2581 c-9 -9 -4 -92 6 -86 6 3 10 -1 10 -9 0 -8 -5 -18 -11 -22
-8 -4 -9 -28 -3 -73 4 -36 8 -77 9 -91 2 -14 19 -42 40 -63 26 -26 36 -43 32
-57 -4 -16 5 -28 40 -51 43 -30 49 -31 112 -25 36 4 68 11 69 16 2 6 10 10 18
10 19 0 46 44 38 64 -4 12 0 16 15 16 12 0 21 5 21 10 0 6 8 10 18 10 44 1 77
59 62 110 -13 46 -13 58 3 63 17 6 -19 -2 -44 -9 -18 -6 -19 -4 -13 22 4 16
13 34 21 39 18 14 7 76 -13 68 -8 -3 -14 -11 -14 -18 0 -7 -6 -27 -13 -44
l-13 -31 -42 27 c-23 15 -42 33 -42 40 0 7 -9 13 -20 13 -11 0 -20 4 -20 9 0
5 -26 17 -57 26 -32 9 -70 23 -84 31 -24 12 -113 16 -125 5z"/>
<path d="M1632 2558 c-29 -4 -62 -13 -72 -18 -10 -6 -30 -10 -43 -10 -16 0
-26 -7 -30 -20 -3 -11 -13 -20 -22 -20 -10 0 -15 -5 -12 -13 4 -10 -5 -13 -32
-11 -48 3 -73 13 -93 38 -13 16 -20 18 -29 9 -9 -9 -4 -19 21 -44 27 -27 30
-34 18 -43 -8 -6 -13 -17 -10 -24 2 -7 -4 -19 -14 -27 -18 -13 -18 -14 4 -37
12 -14 22 -28 22 -32 0 -5 11 -17 25 -28 14 -11 30 -28 35 -38 9 -16 5 -18
-42 -18 -49 -1 -80 -18 -57 -33 15 -9 59 2 60 15 0 6 4 2 9 -9 13 -29 12 -35
-6 -35 -8 0 -12 -5 -9 -11 4 -6 13 -8 20 -5 8 3 15 -9 19 -35 5 -34 10 -39 32
-39 15 0 23 4 19 10 -9 15 15 42 31 36 8 -3 11 0 7 10 -3 7 -9 14 -14 14 -5 0
-9 7 -9 15 0 18 17 20 22 3 3 -8 14 -5 33 10 28 22 62 22 76 0 4 -6 23 -4 48
5 45 15 149 13 166 -4 24 -24 129 6 138 40 2 9 23 25 45 36 24 12 40 25 37 33
-2 6 3 12 13 12 15 1 16 2 1 13 -12 9 -14 19 -8 34 9 24 -14 95 -40 126 -18
22 -112 74 -166 92 -43 14 -109 15 -193 3z"/>
</g>
</svg>
